<svg width="33" height="34" viewBox="0 0 33 34" fill="none" xmlns="http://www.w3.org/2000/svg">
<path d="M20.5143 4.51421C18.0448 3.72027 15.3954 3.67643 12.901 4.38824C10.4067 5.10005 8.1794 6.53554 6.50087 8.51318C4.82234 10.4908 3.76795 12.9218 3.47103 15.4987C3.1741 18.0756 3.64798 20.6826 4.83274 22.9902C6.0175 25.2978 7.85992 27.2022 10.127 28.4626C12.3941 29.7231 14.9841 30.283 17.5694 30.0715C20.1547 29.86 22.6192 28.8866 24.6513 27.2744C26.6834 25.6622 28.1918 23.4837 28.9857 21.0142" stroke="url(#paint0_linear_1_166)" stroke-width="2" stroke-linecap="round"/>
<path d="M11.3708 13.0535C11.5973 13.0448 11.8188 13.12 11.9925 13.2642L17.8148 19.0452L29.4794 7.8058C29.6541 7.6371 29.8894 7.54405 30.1331 7.54745C30.3769 7.55086 30.6092 7.65026 30.7792 7.82379C30.9491 7.99731 31.0426 8.23074 31.0392 8.47274C31.0357 8.71449 30.9353 8.9455 30.7608 9.11416L17.7494 21.5369L10.705 14.5425C10.5598 14.3701 10.4841 14.1502 10.4928 13.9253C10.5017 13.6969 10.597 13.4802 10.7598 13.3186C10.9226 13.157 11.1408 13.0623 11.3708 13.0535Z" fill="url(#paint1_linear_1_166)"/>
<defs>
<linearGradient id="paint0_linear_1_166" x1="2.80929" y1="26.3746" x2="11.2103" y2="1.79661" gradientUnits="userSpaceOnUse">
<stop stop-color="#F11287"/>
<stop offset="1" stop-color="#0E7FF9"/>
</linearGradient>
<linearGradient id="paint1_linear_1_166" x1="10.4921" y1="9.12118" x2="30.8273" y2="9.66748" gradientUnits="userSpaceOnUse">
<stop stop-color="#F11287"/>
<stop offset="1" stop-color="#0E7FF9"/>
</linearGradient>
</defs>
</svg>
