<svg width="50" height="50" viewBox="0 0 50 50" fill="none" xmlns="http://www.w3.org/2000/svg">
<path d="M20.0435 25L24.5576 29.7059L34.7145 19.1176M26.8147 45C37.4105 45 46 36.0457 46 25C46 13.9543 37.4105 5 26.8147 5C16.219 5 7.62945 13.9543 7.62945 25C7.62945 27.2353 7.98122 29.3849 8.63018 31.392C8.8744 32.1473 8.99651 32.525 9.01853 32.8151C9.04028 33.1016 9.02384 33.3025 8.95584 33.5811C8.88699 33.8631 8.73497 34.1564 8.43093 34.7431L4.73911 41.8667C4.2125 42.8828 3.9492 43.3909 4.00813 43.783C4.05946 44.1245 4.25228 44.4252 4.53538 44.6053C4.8604 44.8119 5.41141 44.7526 6.51342 44.6338L18.072 43.3883C18.4221 43.3506 18.5971 43.3317 18.7566 43.3381C18.9135 43.3443 19.0243 43.3597 19.1773 43.3964C19.3328 43.4338 19.5284 43.5124 19.9197 43.6695C22.0595 44.5289 24.3843 45 26.8147 45Z" stroke="url(#paint0_linear_1_38)" stroke-width="2" stroke-linecap="round" stroke-linejoin="round"/>
<defs>
<linearGradient id="paint0_linear_1_38" x1="4" y1="9.5" x2="45.5814" y2="10.2986" gradientUnits="userSpaceOnUse">
<stop stop-color="#F11287"/>
<stop offset="1" stop-color="#0E7FF9"/>
</linearGradient>
</defs>
</svg>
