<svg width="50" height="46" viewBox="0 0 50 46" fill="none" xmlns="http://www.w3.org/2000/svg">
<path d="M25 22.1156C25 24.3368 19.6904 26.1375 13.1406 26.1375C6.59087 26.1375 1.28125 24.3368 1.28125 22.1156M25 22.1156C25 19.8944 19.6904 18.0938 13.1406 18.0938C6.59087 18.0938 1.28125 19.8944 1.28125 22.1156M25 22.1156V40.8844C25 43.1098 19.7292 44.9063 13.1406 44.9063C6.55208 44.9063 1.28125 43.1098 1.28125 40.8844V22.1156M25 28.4437C25 30.6691 19.7292 32.4655 13.1406 32.4655C6.55208 32.4655 1.28125 30.6691 1.28125 28.4437M25 34.7711C25 36.9966 19.7292 38.793 13.1406 38.793C6.55208 38.793 1.28125 36.9966 1.28125 34.7711" stroke="url(#paint0_linear_1_31)" stroke-width="2" stroke-linecap="round" stroke-linejoin="round"/>
<path d="M48.7188 5.11563C48.7188 7.33685 43.4091 9.1375 36.8594 9.1375C30.3096 9.1375 25 7.33685 25 5.11563M48.7188 5.11563C48.7188 2.8944 43.4091 1.09375 36.8594 1.09375C30.3096 1.09375 25 2.8944 25 5.11563M48.7188 5.11563V23.8844C48.7188 26.1098 43.4479 27.9063 36.8594 27.9063C30.2708 27.9063 25 26.1098 25 23.8844V5.11563M48.7188 11.4437C48.7188 13.6691 43.4479 15.4655 36.8594 15.4655C30.2708 15.4655 25 13.6691 25 11.4437M48.7188 17.7711C48.7188 19.9966 43.4479 21.793 36.8594 21.793C30.2708 21.793 25 19.9966 25 17.7711" stroke="url(#paint1_linear_1_31)" stroke-width="2" stroke-linecap="round" stroke-linejoin="round"/>
<defs>
<linearGradient id="paint0_linear_1_31" x1="1.28125" y1="21.1102" x2="24.7661" y2="21.4901" gradientUnits="userSpaceOnUse">
<stop stop-color="#F11287"/>
<stop offset="1" stop-color="#0E7FF9"/>
</linearGradient>
<linearGradient id="paint1_linear_1_31" x1="25" y1="4.11016" x2="48.4848" y2="4.49015" gradientUnits="userSpaceOnUse">
<stop stop-color="#F11287"/>
<stop offset="1" stop-color="#0E7FF9"/>
</linearGradient>
</defs>
</svg>
