<svg width="52" height="50" viewBox="0 0 52 50" fill="none" xmlns="http://www.w3.org/2000/svg">
<path d="M25.359 32.0002L17.6667 25.5387M25.359 32.0002C28.9406 30.8559 32.3766 29.4128 35.6154 27.6925M25.359 32.0002V42.7693C25.359 42.7693 33.1282 41.5847 35.6154 38.4616C38.3846 34.9724 35.6154 27.6925 35.6154 27.6925M17.6667 25.5387C19.0311 22.5652 20.7492 19.7149 22.7949 17.0311C25.7825 13.0185 29.9426 9.71472 34.8795 7.43392C39.8164 5.15312 45.3658 3.97118 51 4.00053C51 9.85892 49 20.1542 35.6154 27.6925M17.6667 25.5387H4.84615C4.84615 25.5387 6.25641 19.0127 9.97436 16.9234C14.1282 14.5973 22.7949 16.9234 22.7949 16.9234M6.12821 35.2309C2.28205 37.9447 1 46 1 46C1 46 10.5897 44.9231 13.8205 41.6924C15.641 39.8832 15.6154 37.1047 13.5897 35.4248C12.5931 34.6257 11.2802 34.164 9.90314 34.1282C8.52605 34.0924 7.18173 34.4851 6.12821 35.2309Z" stroke="url(#paint0_linear_1_45)" stroke-width="2" stroke-linecap="round" stroke-linejoin="round"/>
<defs>
<linearGradient id="paint0_linear_1_45" x1="1" y1="8.725" x2="50.4964" y2="9.80276" gradientUnits="userSpaceOnUse">
<stop stop-color="#F11287"/>
<stop offset="1" stop-color="#0E7FF9"/>
</linearGradient>
</defs>
</svg>
